<svg width="54" height="35" viewBox="0 0 54 35" fill="none" xmlns="http://www.w3.org/2000/svg">
<path d="M12.6797 22.5078H7.07812V35H0.046875V0.875H12.7266C16.7578 0.875 19.8672 1.77344 22.0547 3.57031C24.2422 5.36719 25.3359 7.90625 25.3359 11.1875C25.3359 13.5156 24.8281 15.4609 23.8125 17.0234C22.8125 18.5703 21.2891 19.8047 19.2422 20.7266L26.625 34.6719V35H19.0781L12.6797 22.5078ZM7.07812 16.8125H12.75C14.5156 16.8125 15.8828 16.3672 16.8516 15.4766C17.8203 14.5703 18.3047 13.3281 18.3047 11.75C18.3047 10.1406 17.8438 8.875 16.9219 7.95312C16.0156 7.03125 14.6172 6.57031 12.7266 6.57031H7.07812V16.8125ZM51.2344 20.2109H37.7344V29.3516H53.5781V35H30.7031V0.875H53.5312V6.57031H37.7344V14.7031H51.2344V20.2109Z" fill="white"/>
</svg>
