<svg width="196" height="36" viewBox="0 0 196 36" fill="none" xmlns="http://www.w3.org/2000/svg">
<path d="M12.6797 22.5078H7.07812V35H0.046875V0.875H12.7266C16.7578 0.875 19.8672 1.77344 22.0547 3.57031C24.2422 5.36719 25.3359 7.90625 25.3359 11.1875C25.3359 13.5156 24.8281 15.4609 23.8125 17.0234C22.8125 18.5703 21.2891 19.8047 19.2422 20.7266L26.625 34.6719V35H19.0781L12.6797 22.5078ZM7.07812 16.8125H12.75C14.5156 16.8125 15.8828 16.3672 16.8516 15.4766C17.8203 14.5703 18.3047 13.3281 18.3047 11.75C18.3047 10.1406 17.8438 8.875 16.9219 7.95312C16.0156 7.03125 14.6172 6.57031 12.7266 6.57031H7.07812V16.8125ZM51.2344 20.2109H37.7344V29.3516H53.5781V35H30.7031V0.875H53.5312V6.57031H37.7344V14.7031H51.2344V20.2109ZM82.5469 24.5469C82.2188 28.0625 81.0078 30.7656 78.9141 32.6562C76.8203 34.5312 73.9766 35.4688 70.3828 35.4688C67.9609 35.4688 65.8125 34.8594 63.9375 33.6406C62.0781 32.4062 60.6328 30.6641 59.6016 28.4141C58.5703 26.1484 58.0469 23.5625 58.0312 20.6562V15.3828C58.0312 12.4766 58.5391 9.88281 59.5547 7.60156C60.5703 5.30469 62.0156 3.53125 63.8906 2.28125C65.7812 1.03125 67.9453 0.40625 70.3828 0.40625C73.9453 0.40625 76.7812 1.34375 78.8906 3.21875C81 5.09375 82.2188 7.78125 82.5469 11.2812H81.2812C80.9219 8.14062 79.8281 5.75781 78 4.13281C76.1719 2.49219 73.6328 1.67188 70.3828 1.67188C67.0703 1.67188 64.3906 2.92187 62.3438 5.42188C60.3125 7.92188 59.2969 11.2734 59.2969 15.4766V20.4922C59.2969 23.1797 59.75 25.5625 60.6562 27.6406C61.5625 29.7031 62.8594 31.3125 64.5469 32.4688C66.25 33.625 68.1953 34.2031 70.3828 34.2031C73.6484 34.2031 76.1953 33.3984 78.0234 31.7891C79.8672 30.1797 80.9531 27.7656 81.2812 24.5469H82.5469ZM100.055 20.8906L112.008 0.875H113.555L100.688 22.0391V35H99.4219V22.0391L86.5547 0.875H88.2422L100.055 20.8906ZM141.656 24.5469C141.328 28.0625 140.117 30.7656 138.023 32.6562C135.93 34.5312 133.086 35.4688 129.492 35.4688C127.07 35.4688 124.922 34.8594 123.047 33.6406C121.188 32.4062 119.742 30.6641 118.711 28.4141C117.68 26.1484 117.156 23.5625 117.141 20.6562V15.3828C117.141 12.4766 117.648 9.88281 118.664 7.60156C119.68 5.30469 121.125 3.53125 123 2.28125C124.891 1.03125 127.055 0.40625 129.492 0.40625C133.055 0.40625 135.891 1.34375 138 3.21875C140.109 5.09375 141.328 7.78125 141.656 11.2812H140.391C140.031 8.14062 138.938 5.75781 137.109 4.13281C135.281 2.49219 132.742 1.67188 129.492 1.67188C126.18 1.67188 123.5 2.92187 121.453 5.42188C119.422 7.92188 118.406 11.2734 118.406 15.4766V20.4922C118.406 23.1797 118.859 25.5625 119.766 27.6406C120.672 29.7031 121.969 31.3125 123.656 32.4688C125.359 33.625 127.305 34.2031 129.492 34.2031C132.758 34.2031 135.305 33.3984 137.133 31.7891C138.977 30.1797 140.062 27.7656 140.391 24.5469H141.656ZM150.867 33.7344H168.375V35H149.578V0.875H150.867V33.7344ZM192.75 18.0781H175.641V33.7344H195.141V35H174.375V0.875H195.141V2.14062H175.641V16.8125H192.75V18.0781Z" fill="#A5B1A3"/>
</svg>
