<svg width="175" height="36" viewBox="0 0 175 36" fill="none" xmlns="http://www.w3.org/2000/svg">
<path d="M12.6797 22.5078H7.07812V35H0.046875V0.875H12.7266C16.7578 0.875 19.8672 1.77344 22.0547 3.57031C24.2422 5.36719 25.3359 7.90625 25.3359 11.1875C25.3359 13.5156 24.8281 15.4609 23.8125 17.0234C22.8125 18.5703 21.2891 19.8047 19.2422 20.7266L26.625 34.6719V35H19.0781L12.6797 22.5078ZM7.07812 16.8125H12.75C14.5156 16.8125 15.8828 16.3672 16.8516 15.4766C17.8203 14.5703 18.3047 13.3281 18.3047 11.75C18.3047 10.1406 17.8438 8.875 16.9219 7.95312C16.0156 7.03125 14.6172 6.57031 12.7266 6.57031H7.07812V16.8125ZM51.2344 20.2109H37.7344V29.3516H53.5781V35H30.7031V0.875H53.5312V6.57031H37.7344V14.7031H51.2344V20.2109ZM59.3438 35V0.875H68.7891C71.4297 0.875 73.8203 1.5 75.9609 2.75C78.1016 4 79.7812 5.75781 81 8.02344C82.2188 10.2734 82.8438 12.7969 82.875 15.5938V20.0234C82.875 22.8672 82.2734 25.4297 81.0703 27.7109C79.8828 29.9922 78.2188 31.7734 76.0781 33.0547C73.9375 34.3359 71.5469 34.9844 68.9062 35H59.3438ZM60.6094 2.14062V33.7344H68.7891C71.1797 33.7344 73.3516 33.1562 75.3047 32C77.2734 30.8281 78.8125 29.2031 79.9219 27.125C81.0312 25.0312 81.5938 22.7109 81.6094 20.1641V15.7812C81.6094 13.2344 81.0625 10.9219 79.9688 8.84375C78.8906 6.76562 77.375 5.14062 75.4219 3.96875C73.4844 2.78125 71.3359 2.17187 68.9766 2.14062H60.6094ZM113.719 0.875V23.9844C113.719 27.5938 112.672 30.4141 110.578 32.4453C108.484 34.4609 105.648 35.4688 102.07 35.4688C98.4922 35.4688 95.6562 34.4609 93.5625 32.4453C91.4688 30.4141 90.4141 27.625 90.3984 24.0781V0.875H91.6641V23.9375C91.6641 27.0938 92.6094 29.5938 94.5 31.4375C96.4062 33.2812 98.9297 34.2031 102.07 34.2031C105.211 34.2031 107.727 33.2812 109.617 31.4375C111.508 29.5938 112.453 27.0859 112.453 23.9141V0.875H113.719ZM145.969 24.5469C145.641 28.0625 144.43 30.7656 142.336 32.6562C140.242 34.5312 137.398 35.4688 133.805 35.4688C131.383 35.4688 129.234 34.8594 127.359 33.6406C125.5 32.4062 124.055 30.6641 123.023 28.4141C121.992 26.1484 121.469 23.5625 121.453 20.6562V15.3828C121.453 12.4766 121.961 9.88281 122.977 7.60156C123.992 5.30469 125.438 3.53125 127.312 2.28125C129.203 1.03125 131.367 0.40625 133.805 0.40625C137.367 0.40625 140.203 1.34375 142.312 3.21875C144.422 5.09375 145.641 7.78125 145.969 11.2812H144.703C144.344 8.14062 143.25 5.75781 141.422 4.13281C139.594 2.49219 137.055 1.67188 133.805 1.67188C130.492 1.67188 127.812 2.92187 125.766 5.42188C123.734 7.92188 122.719 11.2734 122.719 15.4766V20.4922C122.719 23.1797 123.172 25.5625 124.078 27.6406C124.984 29.7031 126.281 31.3125 127.969 32.4688C129.672 33.625 131.617 34.2031 133.805 34.2031C137.07 34.2031 139.617 33.3984 141.445 31.7891C143.289 30.1797 144.375 27.7656 144.703 24.5469H145.969ZM172.266 18.0781H155.156V33.7344H174.656V35H153.891V0.875H174.656V2.14062H155.156V16.8125H172.266V18.0781Z" fill="#A5B1A3"/>
</svg>
