<svg width="168" height="36" viewBox="0 0 168 36" fill="none" xmlns="http://www.w3.org/2000/svg">
<path d="M12.6797 22.5078H7.07812V35H0.046875V0.875H12.7266C16.7578 0.875 19.8672 1.77344 22.0547 3.57031C24.2422 5.36719 25.3359 7.90625 25.3359 11.1875C25.3359 13.5156 24.8281 15.4609 23.8125 17.0234C22.8125 18.5703 21.2891 19.8047 19.2422 20.7266L26.625 34.6719V35H19.0781L12.6797 22.5078ZM7.07812 16.8125H12.75C14.5156 16.8125 15.8828 16.3672 16.8516 15.4766C17.8203 14.5703 18.3047 13.3281 18.3047 11.75C18.3047 10.1406 17.8438 8.875 16.9219 7.95312C16.0156 7.03125 14.6172 6.57031 12.7266 6.57031H7.07812V16.8125ZM51.2344 20.2109H37.7344V29.3516H53.5781V35H30.7031V0.875H53.5312V6.57031H37.7344V14.7031H51.2344V20.2109ZM78.0938 18.2188H60.6094V35H59.3438V0.875H80.4844V2.14062H60.6094V16.9062H78.0938V18.2188ZM109.781 0.875V23.9844C109.781 27.5938 108.734 30.4141 106.641 32.4453C104.547 34.4609 101.711 35.4688 98.1328 35.4688C94.5547 35.4688 91.7188 34.4609 89.625 32.4453C87.5312 30.4141 86.4766 27.625 86.4609 24.0781V0.875H87.7266V23.9375C87.7266 27.0938 88.6719 29.5938 90.5625 31.4375C92.4688 33.2812 94.9922 34.2031 98.1328 34.2031C101.273 34.2031 103.789 33.2812 105.68 31.4375C107.57 29.5938 108.516 27.0859 108.516 23.9141V0.875H109.781ZM139.266 26.8203C139.266 25.3672 138.922 24.1406 138.234 23.1406C137.562 22.125 136.492 21.2344 135.023 20.4688C133.57 19.6875 131.367 18.8906 128.414 18.0781C125.461 17.2656 123.242 16.4453 121.758 15.6172C120.289 14.7891 119.211 13.8281 118.523 12.7344C117.836 11.6406 117.492 10.3125 117.492 8.75C117.492 6.26562 118.539 4.25781 120.633 2.72656C122.727 1.17969 125.453 0.40625 128.812 0.40625C131 0.40625 132.961 0.835937 134.695 1.69531C136.445 2.53906 137.797 3.73438 138.75 5.28125C139.703 6.8125 140.18 8.54688 140.18 10.4844H138.914C138.914 7.9375 137.977 5.83594 136.102 4.17969C134.227 2.50781 131.797 1.67188 128.812 1.67188C125.812 1.67188 123.383 2.34375 121.523 3.6875C119.68 5.01563 118.758 6.6875 118.758 8.70312C118.758 10.75 119.562 12.3984 121.172 13.6484C122.781 14.8984 125.438 16.0078 129.141 16.9766C132.844 17.9297 135.555 19.0391 137.273 20.3047C139.461 21.9141 140.555 24.0703 140.555 26.7734C140.555 28.4922 140.07 30.0156 139.102 31.3438C138.133 32.6562 136.758 33.6719 134.977 34.3906C133.195 35.1094 131.195 35.4688 128.977 35.4688C126.508 35.4688 124.289 35.0625 122.32 34.25C120.352 33.4219 118.867 32.25 117.867 30.7344C116.883 29.2188 116.391 27.4297 116.391 25.3672H117.656C117.656 28.1641 118.703 30.3359 120.797 31.8828C122.891 33.4297 125.617 34.2031 128.977 34.2031C131.961 34.2031 134.422 33.5234 136.359 32.1641C138.297 30.7891 139.266 29.0078 139.266 26.8203ZM165.609 18.0781H148.5V33.7344H168V35H147.234V0.875H168V2.14062H148.5V16.8125H165.609V18.0781Z" fill="#A5B1A3"/>
</svg>
