<svg width="141" height="36" viewBox="0 0 141 36" fill="none" xmlns="http://www.w3.org/2000/svg">
<path d="M12.6797 22.5078H7.07812V35H0.046875V0.875H12.7266C16.7578 0.875 19.8672 1.77344 22.0547 3.57031C24.2422 5.36719 25.3359 7.90625 25.3359 11.1875C25.3359 13.5156 24.8281 15.4609 23.8125 17.0234C22.8125 18.5703 21.2891 19.8047 19.2422 20.7266L26.625 34.6719V35H19.0781L12.6797 22.5078ZM7.07812 16.8125H12.75C14.5156 16.8125 15.8828 16.3672 16.8516 15.4766C17.8203 14.5703 18.3047 13.3281 18.3047 11.75C18.3047 10.1406 17.8438 8.875 16.9219 7.95312C16.0156 7.03125 14.6172 6.57031 12.7266 6.57031H7.07812V16.8125ZM51.2344 20.2109H37.7344V29.3516H53.5781V35H30.7031V0.875H53.5312V6.57031H37.7344V14.7031H51.2344V20.2109ZM82.3125 0.875V23.9844C82.3125 27.5938 81.2656 30.4141 79.1719 32.4453C77.0781 34.4609 74.2422 35.4688 70.6641 35.4688C67.0859 35.4688 64.25 34.4609 62.1562 32.4453C60.0625 30.4141 59.0078 27.625 58.9922 24.0781V0.875H60.2578V23.9375C60.2578 27.0938 61.2031 29.5938 63.0938 31.4375C65 33.2812 67.5234 34.2031 70.6641 34.2031C73.8047 34.2031 76.3203 33.2812 78.2109 31.4375C80.1016 29.5938 81.0469 27.0859 81.0469 23.9141V0.875H82.3125ZM111.797 26.8203C111.797 25.3672 111.453 24.1406 110.766 23.1406C110.094 22.125 109.023 21.2344 107.555 20.4688C106.102 19.6875 103.898 18.8906 100.945 18.0781C97.9922 17.2656 95.7734 16.4453 94.2891 15.6172C92.8203 14.7891 91.7422 13.8281 91.0547 12.7344C90.3672 11.6406 90.0234 10.3125 90.0234 8.75C90.0234 6.26562 91.0703 4.25781 93.1641 2.72656C95.2578 1.17969 97.9844 0.40625 101.344 0.40625C103.531 0.40625 105.492 0.835937 107.227 1.69531C108.977 2.53906 110.328 3.73438 111.281 5.28125C112.234 6.8125 112.711 8.54688 112.711 10.4844H111.445C111.445 7.9375 110.508 5.83594 108.633 4.17969C106.758 2.50781 104.328 1.67188 101.344 1.67188C98.3438 1.67188 95.9141 2.34375 94.0547 3.6875C92.2109 5.01563 91.2891 6.6875 91.2891 8.70312C91.2891 10.75 92.0938 12.3984 93.7031 13.6484C95.3125 14.8984 97.9688 16.0078 101.672 16.9766C105.375 17.9297 108.086 19.0391 109.805 20.3047C111.992 21.9141 113.086 24.0703 113.086 26.7734C113.086 28.4922 112.602 30.0156 111.633 31.3438C110.664 32.6562 109.289 33.6719 107.508 34.3906C105.727 35.1094 103.727 35.4688 101.508 35.4688C99.0391 35.4688 96.8203 35.0625 94.8516 34.25C92.8828 33.4219 91.3984 32.25 90.3984 30.7344C89.4141 29.2188 88.9219 27.4297 88.9219 25.3672H90.1875C90.1875 28.1641 91.2344 30.3359 93.3281 31.8828C95.4219 33.4297 98.1484 34.2031 101.508 34.2031C104.492 34.2031 106.953 33.5234 108.891 32.1641C110.828 30.7891 111.797 29.0078 111.797 26.8203ZM138.141 18.0781H121.031V33.7344H140.531V35H119.766V0.875H140.531V2.14062H121.031V16.8125H138.141V18.0781Z" fill="#A5B1A3"/>
</svg>
